<?xml version="1.0" encoding="UTF-8"?>
<svg id="Layer_1" data-name="Layer 1" xmlns="http://www.w3.org/2000/svg" viewBox="0 0 512 512">
  <defs>
    <style>
      .cls-1 {
        fill: #024c35;
      }

      .cls-2 {
        fill: #fff;
      }
    </style>
  </defs>
  <circle class="cls-1" cx="256" cy="256" r="256"/>
  <g>
    <path class="cls-2" d="M189.96,378.52v-54.3c0-38.53-4.15-71.91-45.01-71.91-8.27,0-16.54,3.62-24.04,9.84-12.41,10.34-19.13,26.11-19.13,42.15v74.22c0,2,.21,3.98.67,5.91.76,3.52,2.24,6.86,4.24,9.86,2.83,4.41,7.24,8.03,12.68,10.08H53.14c10.6-4.12,17.58-14.46,17.58-25.85v-49.51c-.07-2.83-.1-5.62-.1-8.41v-116.56h-22.3v-4.15c8.55-1.81,16.1-4.88,22.23-8.48.02-.02.05-.02.07-.05,22.54-12.94,30.62-32.57,31.12-33.62v42.15h.02v83.73c9.56-25.09,32.07-41.12,61.28-41.12,54.83,0,57.92,45.01,57.92,73.96v62.33c.26,5.7,1.81,10.87,4.91,15.51,2.86,4.41,7.24,8.03,12.68,10.08h-66.19c10.6-4.12,17.58-14.46,17.58-25.85h0Z"/>
    <path class="cls-2" d="M374.51,378.52v-54.3c0-38.53-4.15-71.91-45.01-71.91-8.27,0-16.54,3.62-24.04,9.84-12.41,10.34-19.13,26.11-19.13,42.15v74.22c0,2,.21,3.98.67,5.91.76,3.52,2.24,6.86,4.24,9.86,2.83,4.41,7.24,8.03,12.68,10.08h-66.22c10.6-4.12,17.58-14.46,17.58-25.85v-49.51c-.07-2.83-.1-5.62-.1-8.41v-116.56h-22.3v-4.15c8.55-1.81,16.1-4.88,22.23-8.48.02-.02.05-.02.07-.05,22.54-12.94,30.62-32.57,31.12-33.62v42.15h.02v83.73c9.56-25.09,32.07-41.12,61.28-41.12,54.83,0,57.92,45.01,57.92,73.96v62.33c.26,5.7,1.81,10.87,4.91,15.51,2.86,4.41,7.24,8.03,12.68,10.08h-66.19c10.6-4.12,17.58-14.46,17.58-25.85h0Z"/>
    <circle class="cls-2" cx="445.4" cy="386.1" r="18.27"/>
  </g>
</svg>