<?xml version="1.0" encoding="UTF-8"?>
<svg id="Layer_1" xmlns="http://www.w3.org/2000/svg" version="1.1" viewBox="0 0 201 47">
  <!-- Generator: Adobe Illustrator 29.5.1, SVG Export Plug-In . SVG Version: 2.1.0 Build 141)  -->
  <defs>
    <style>
      .st0 {
        fill: #fff;
      }
    </style>
  </defs>
  <g>
    <path class="st0" d="M58.39,44.07h-.82v-6.35h1.96c.48,0,.85.07,1.09.21.24.14.44.34.58.6.14.26.21.55.21.86,0,.25-.05.49-.14.71-.1.23-.23.43-.4.62-.17.18-.44.35-.8.49.14.08.24.15.31.22s.15.18.25.33c.1.15.18.3.26.43l1.01,1.88h-.95l-.88-1.67c-.21-.4-.49-.76-.83-1.06h-.83v2.73ZM58.39,40.7h.81c.34,0,.6-.05.77-.16s.32-.26.42-.46c.1-.2.16-.42.16-.64,0-.2-.04-.38-.12-.53-.08-.16-.2-.29-.36-.39-.16-.11-.43-.16-.81-.16h-.87v2.35Z"/>
    <path class="st0" d="M65.46,44.07v-6.35h3.59v.7h-2.76v2h2.41v.63h-2.41v2.31h2.99v.7h-3.81Z"/>
    <path class="st0" d="M73.39,44.07h-.77l2.6-6.35h.83l2.4,6.35h-.89l-.66-1.75h-2.8l-.72,1.75ZM74.36,41.68h2.31l-1.11-2.95-1.19,2.95Z"/>
    <path class="st0" d="M82.01,44.07v-6.35h.82v5.65h3.33v.7h-4.16Z"/>
    <path class="st0" d="M95.32,44.07v-6.35h3.59v.7h-2.76v2h2.41v.63h-2.41v2.31h2.99v.7h-3.81Z"/>
    <path class="st0" d="M102.8,42.64h.83v.04c0,.35.12.6.37.73.25.14.58.21.99.21.36,0,.66-.11.91-.32.24-.21.37-.49.37-.83,0-.28-.1-.51-.31-.68-.21-.17-.53-.35-.96-.52l-.33-.13c-.45-.19-.79-.37-1.01-.55s-.39-.38-.5-.6c-.11-.22-.16-.47-.16-.74,0-.48.17-.89.51-1.22.34-.33.87-.5,1.59-.5.66,0,1.13.12,1.4.37.27.25.41.53.41.86v.04h-.83v-.04c0-.1-.04-.2-.12-.31-.08-.1-.21-.17-.37-.22-.17-.04-.35-.07-.55-.07-.41,0-.71.1-.9.3-.2.2-.29.43-.29.69,0,.17.05.34.14.49.09.15.22.28.38.38.16.1.44.24.82.4l.39.17c.62.27,1.04.55,1.25.85.21.3.31.62.31.96,0,.32-.08.63-.25.93-.17.3-.4.52-.7.68s-.7.23-1.2.23c-.47,0-.87-.06-1.19-.17-.32-.11-.56-.3-.72-.56-.17-.26-.25-.54-.25-.85v-.04Z"/>
    <path class="st0" d="M112.54,44.07v-5.71h-2.16v-.64h5.11v.64h-2.13v5.71h-.82Z"/>
    <path class="st0" d="M119.32,44.07h-.77l2.6-6.35h.83l2.4,6.35h-.89l-.66-1.75h-2.8l-.72,1.75ZM120.29,41.68h2.31l-1.11-2.95-1.19,2.95Z"/>
    <path class="st0" d="M129.63,44.07v-5.71h-2.16v-.64h5.11v.64h-2.13v5.71h-.82Z"/>
    <path class="st0" d="M136.12,44.07v-6.35h3.59v.7h-2.76v2h2.41v.63h-2.41v2.31h2.99v.7h-3.81Z"/>
  </g>
  <g>
    <path class="st0" d="M43.37,11.34c-5.29,0-9.61,4.15-9.61,9.27s4.32,9.24,9.61,9.24,9.61-4.12,9.61-9.24-4.29-9.27-9.61-9.27ZM43.4,29.39c-3.33,0-6.03-3.92-6.03-8.78s2.7-8.81,6.03-8.81,6.03,3.95,6.03,8.81-2.7,8.78-6.03,8.78Z"/>
    <path class="st0" d="M74.5,29.85c-.62-.26-1.11-.65-1.48-1.19-.06-.11-.11-.23-.17-.31-.26-.48-.37-.97-.37-1.51l-.03-15.46h-5.6c.63.26,1.11.65,1.48,1.19.37.54.54,1.17.54,1.82v8.56c0,.94-.17,1.82-.54,2.67-.37.85-.94,1.59-1.65,2.19-.88.77-1.82,1.14-2.79,1.14-1.56,0-2.7-.4-3.44-1.17-.74-.77-1.22-1.76-1.42-3.04-.2-1.25-.31-2.61-.31-4.09l-.03-9.27h-5.6c.62.26,1.11.65,1.48,1.19.34.54.51,1.11.54,1.76v7.22c0,.82.06,1.73.17,2.73.12.99.4,1.9.82,2.78.43.88,1.08,1.62,1.99,2.19.88.57,2.13.85,3.72.85,1.68,0,3.15-.42,4.38-1.28,1.22-.85,2.13-2.02,2.67-3.5v4.52h5.63Z"/>
    <path class="st0" d="M157.63,29.85c-.63-.26-1.11-.65-1.48-1.19-.06-.11-.12-.23-.17-.31-.25-.48-.37-.97-.37-1.51l-.03-15.46h-5.6c.63.26,1.11.65,1.48,1.19.37.54.54,1.17.54,1.82v8.56c0,.94-.17,1.82-.54,2.67-.37.85-.94,1.59-1.65,2.19-.88.77-1.82,1.14-2.79,1.14-1.56,0-2.7-.4-3.44-1.17-.74-.77-1.22-1.76-1.42-3.04-.2-1.25-.31-2.61-.31-4.09l-.03-9.27h-5.6c.63.26,1.11.65,1.48,1.19.34.54.51,1.11.54,1.76v7.22c0,.82.05,1.73.17,2.73.11.99.4,1.9.82,2.78.42.88,1.08,1.62,1.99,2.19.88.57,2.13.85,3.72.85,1.68,0,3.16-.42,4.38-1.28,1.22-.85,2.13-2.02,2.67-3.5v4.52h5.63Z"/>
    <path class="st0" d="M172.27,29.85h7.53c-.63-.26-1.11-.65-1.45-1.17-.34-.51-.54-1.14-.54-1.76v-7.11c0-3.3-.4-8.44-6.62-8.44-3.33,0-5.88,1.85-6.97,4.69v-4.43l-5.54,2.13c1.11,0,1.99.88,1.99,1.99v11.14c0,1.31-.77,2.47-1.99,2.96h7.53c-.6-.26-1.11-.65-1.45-1.17-.34-.51-.54-1.14-.54-1.79v-8.47c0-1.82.74-3.61,2.16-4.78.85-.71,1.82-1.14,2.76-1.14,4.63,0,5.12,3.81,5.12,8.19v6.2c0,1.31-.8,2.47-1.99,2.96Z"/>
    <path class="st0" d="M185.57,24.33v-12.59h2.65v-.46h-2.65v-4.63c-.99,2.57-3.36,4.46-6.2,4.77v.32h2.59v10.72c0,2.78.17,5.88,3.61,6.99.82.25,1.85.4,3.1.4v-.43s-3.1-.09-3.1-5.09Z"/>
    <path class="st0" d="M91.73,26.51l-.32,2.96c0,.07-.06.12-.13.12h-15.68c-.11,0-.17-.12-.1-.21l13.13-17.6c.06-.09,0-.21-.1-.21h-6.68c-1.11,0-2.16.4-2.98,1.05-.53.43-.97,1-1.28,1.64-.06.13-.26.07-.25-.07l.32-2.96c0-.07.06-.12.13-.12h15.6c.11,0,.17.12.1.21l-13.13,17.6c-.06.09,0,.21.1.21h6.76c1.11,0,2.13-.37,2.96-1.05.55-.44,1-1,1.31-1.64.06-.13.26-.07.25.07Z"/>
    <path class="st0" d="M109.27,26.51l-.32,2.96c0,.07-.06.12-.13.12h-15.68c-.11,0-.17-.12-.1-.21l13.13-17.6c.06-.09,0-.21-.1-.21h-6.68c-1.11,0-2.16.4-2.98,1.05-.53.44-.97,1-1.28,1.64-.06.13-.26.07-.25-.07l.32-2.96c0-.07.06-.12.13-.12h15.6c.11,0,.17.12.1.21l-13.13,17.6c-.06.09,0,.21.1.21h6.76c1.11,0,2.13-.37,2.96-1.05.55-.44,1-1,1.31-1.64.06-.13.26-.07.25.07Z"/>
    <path class="st0" d="M27.97,27.01v-5.97c0-4.23-.46-7.9-4.95-7.9-.91,0-1.82.4-2.64,1.08-1.36,1.14-2.1,2.87-2.1,4.63v8.16c0,.22.02.44.07.65.08.39.25.75.47,1.08.31.48.8.88,1.39,1.11h-7.28c1.17-.45,1.93-1.59,1.93-2.84v-5.44c0-.31-.01-.62-.01-.92V7.83h-2.45v-.46c.94-.2,1.77-.54,2.44-.93,0,0,0,0,0,0,2.48-1.42,3.37-3.58,3.42-3.7v4.63h0v9.2c1.05-2.76,3.53-4.52,6.74-4.52,6.03,0,6.37,4.95,6.37,8.13v6.85c.03.63.2,1.19.54,1.7.31.48.8.88,1.39,1.11h-7.28c1.17-.45,1.93-1.59,1.93-2.84Z"/>
    <path class="st0" d="M131,27.01v-5.97c0-4.23-.46-7.9-4.95-7.9-.91,0-1.82.4-2.64,1.08-1.36,1.14-2.1,2.87-2.1,4.63v8.16c0,.22.02.44.07.65.08.39.25.75.47,1.08.31.48.8.88,1.39,1.11h-7.28c1.17-.45,1.93-1.59,1.93-2.84v-5.44c0-.31-.01-.62-.01-.92V7.83h-2.45v-.46c.94-.2,1.77-.54,2.44-.93,0,0,0,0,0,0,2.48-1.42,3.37-3.58,3.42-3.7v4.63h0v9.2c1.05-2.76,3.53-4.52,6.74-4.52,6.03,0,6.37,4.95,6.37,8.13v6.85c.03.63.2,1.19.54,1.7.31.48.8.88,1.39,1.11h-7.28c1.17-.45,1.93-1.59,1.93-2.84Z"/>
  </g>
</svg>